<?xml version="1.0" encoding="UTF-8" standalone="no"?>
<!-- Created with Inkscape (http://www.inkscape.org/) -->

<svg
   xmlns:dc="http://purl.org/dc/elements/1.1/"
   xmlns:cc="http://creativecommons.org/ns#"
   xmlns:rdf="http://www.w3.org/1999/02/22-rdf-syntax-ns#"
   xmlns:svg="http://www.w3.org/2000/svg"
   xmlns="http://www.w3.org/2000/svg"
   xmlns:sodipodi="http://sodipodi.sourceforge.net/DTD/sodipodi-0.dtd"
   xmlns:inkscape="http://www.inkscape.org/namespaces/inkscape"
   width="210mm"
   height="297mm"
   viewBox="0 0 744.09448819 1052.3622047"
   id="svg2"
   version="1.1"
   inkscape:version="0.91 r13725"
   sodipodi:docname="JazzLogo.svg">
  <defs
     id="defs4" />
  <sodipodi:namedview
     id="base"
     pagecolor="#ffffff"
     bordercolor="#666666"
     borderopacity="1.0"
     inkscape:pageopacity="0.0"
     inkscape:pageshadow="2"
     inkscape:zoom="0.39926789"
     inkscape:cx="774.5935"
     inkscape:cy="494.01095"
     inkscape:document-units="px"
     inkscape:current-layer="layer1"
     showgrid="false"
     inkscape:window-width="1280"
     inkscape:window-height="755"
     inkscape:window-x="1333"
     inkscape:window-y="86"
     inkscape:window-maximized="0" />
  <metadata
     id="metadata7">
    <rdf:RDF>
      <cc:Work
         rdf:about="">
        <dc:format>image/svg+xml</dc:format>
        <dc:type
           rdf:resource="http://purl.org/dc/dcmitype/StillImage" />
        <dc:title></dc:title>
      </cc:Work>
    </rdf:RDF>
  </metadata>
  <g
     inkscape:label="Layer 1"
     inkscape:groupmode="layer"
     id="layer1">
    <rect
       style="opacity:1;fill:#000000;fill-opacity:1;stroke:none;stroke-width:0.088;stroke-linecap:round;stroke-linejoin:round;stroke-miterlimit:4;stroke-dasharray:none;stroke-opacity:1"
       id="rect4241"
       width="796.45776"
       height="796.45776"
       x="767.39355"
       y="17.968983" />
    <g
       transform="scale(1.1079755,0.90254702)"
       style="font-style:normal;font-weight:normal;font-size:484.94903564px;line-height:125%;font-family:sans-serif;letter-spacing:0px;word-spacing:0px;fill:#000000;fill-opacity:1;stroke:none;stroke-width:1px;stroke-linecap:butt;stroke-linejoin:miter;stroke-opacity:1"
       id="text4168" />
    <g
       transform="scale(1.1079755,0.90254703)"
       style="font-style:normal;font-weight:normal;font-size:484.94903564px;line-height:125%;font-family:sans-serif;letter-spacing:0px;word-spacing:0px;fill:#000000;fill-opacity:1;stroke:none;stroke-width:1px;stroke-linecap:butt;stroke-linejoin:miter;stroke-opacity:1"
       id="text4172" />
    <g
       id="g4204">
      <path
         id="path4136"
         d="M 367.14258 149.50586 A 250 250 0 0 0 117.14258 399.50586 A 250 250 0 0 0 165.48438 546.76172 A 230 230 0 0 1 137.14258 436.64844 A 230 230 0 0 1 367.14258 206.64844 A 230 230 0 0 1 597.14258 436.64844 A 230 230 0 0 1 569.44141 545.97266 A 250 250 0 0 0 617.14258 399.50586 A 250 250 0 0 0 367.14258 149.50586 z "
         style="opacity:1;fill:#000000;fill-opacity:1;stroke:none;stroke-width:0.088;stroke-linecap:round;stroke-linejoin:round;stroke-miterlimit:4;stroke-dasharray:none;stroke-opacity:1" />
      <path
         inkscape:connector-curvature="0"
         id="rect4147"
         d="m 100.67534,421.39516 -12.109354,19.70773 a 132.64297,29.36367 76.569394 0 0 13.131214,106.64002 132.64297,29.36367 76.569394 0 0 36.47337,101.06971 l 19.70255,12.1068 14.22265,-23.14507 A 132.64297,29.36367 76.569394 0 0 158.81871,534.10205 132.64297,29.36367 76.569394 0 0 123.90212,435.6671 l -23.22678,-14.27194 z m 9.80464,36.70182 a 85.154508,18.85098 76.569394 0 1 38.11335,78.44725 85.154508,18.85098 76.569394 0 1 1.44352,87.20354 85.154508,18.85098 76.569394 0 1 -38.11427,-78.4464 85.154508,18.85098 76.569394 0 1 -1.4426,-87.20439 z"
         style="opacity:1;fill:#bba535;fill-opacity:1;stroke:none;stroke-width:0.088;stroke-linecap:round;stroke-linejoin:round;stroke-miterlimit:4;stroke-dasharray:none;stroke-opacity:1" />
      <path
         style="opacity:1;fill:#bba535;fill-opacity:1;stroke:none;stroke-width:0.088;stroke-linecap:round;stroke-linejoin:round;stroke-miterlimit:4;stroke-dasharray:none;stroke-opacity:1"
         d="m 92.92667,431.68636 -11.068792,18.01371 a 121.24555,26.840542 76.569394 0 0 12.003126,97.47684 121.24555,26.840542 76.569394 0 0 33.338766,92.38555 l 18.00951,11.0664 13.0006,-21.15675 a 121.24555,26.840542 76.569394 0 0 -12.13605,-94.76374 121.24555,26.840542 76.569394 0 0 -31.91611,-89.97671 l -21.23105,-13.0453 z m 8.96219,33.5475 a 77.83746,17.231172 76.569394 0 1 34.83839,71.70685 77.83746,17.231172 76.569394 0 1 1.3196,79.71058 77.83746,17.231172 76.569394 0 1 -34.83993,-71.70608 77.83746,17.231172 76.569394 0 1 -1.31806,-79.71135 z"
         id="path4158"
         inkscape:connector-curvature="0" />
      <path
         style="opacity:1;fill:#bba535;fill-opacity:1;stroke:none;stroke-width:0.088;stroke-linecap:round;stroke-linejoin:round;stroke-miterlimit:4;stroke-dasharray:none;stroke-opacity:1"
         d="m 635.55612,414.45537 12.10935,19.70709 a 29.36367,132.64297 13.430606 0 1 -13.1312,106.64002 29.36367,132.64297 13.430606 0 1 -36.47337,101.07035 l -19.70255,12.1068 -14.22265,-23.14571 a 29.36367,132.64297 13.430606 0 1 13.27706,-103.67166 29.36367,132.64297 13.430606 0 1 34.91659,-98.43495 l 23.22677,-14.27194 z m -9.80463,36.70118 a 18.85098,85.154508 13.430606 0 0 -38.11335,78.44725 18.85098,85.154508 13.430606 0 0 -1.44352,87.20418 18.85098,85.154508 13.430606 0 0 38.11427,-78.44704 18.85098,85.154508 13.430606 0 0 1.4426,-87.20439 z"
         id="path4160"
         inkscape:connector-curvature="0" />
      <path
         inkscape:connector-curvature="0"
         id="path4162"
         d="m 643.30476,424.74593 11.06879,18.01435 a 26.840542,121.24555 13.430606 0 1 -12.00312,97.4762 26.840542,121.24555 13.430606 0 1 -33.33873,92.38555 l -18.00951,11.0664 -13.0006,-21.15611 a 26.840542,121.24555 13.430606 0 1 12.13605,-94.76374 26.840542,121.24555 13.430606 0 1 31.91611,-89.97735 l 21.23101,-13.0453 z m -8.96215,33.5475 a 17.231172,77.83746 13.430606 0 0 -34.83839,71.70685 17.231172,77.83746 13.430606 0 0 -1.3196,79.71058 17.231172,77.83746 13.430606 0 0 34.83993,-71.70608 17.231172,77.83746 13.430606 0 0 1.31806,-79.71135 z"
         style="opacity:1;fill:#bba535;fill-opacity:1;stroke:none;stroke-width:0.088;stroke-linecap:round;stroke-linejoin:round;stroke-miterlimit:4;stroke-dasharray:none;stroke-opacity:1" />
      <g
         id="text4164"
         style="font-style:normal;font-weight:normal;font-size:276.98934937px;line-height:125%;font-family:sans-serif;letter-spacing:0px;word-spacing:0px;fill:#000000;fill-opacity:1;stroke:none;stroke-width:1px;stroke-linecap:butt;stroke-linejoin:miter;stroke-opacity:1"
         transform="scale(0.66893883,1.494905)">
        <path
           id="path4202"
           style="font-style:normal;font-variant:normal;font-weight:normal;font-stretch:normal;font-family:Mistral;-inkscape-font-specification:Mistral"
           d="m 449.07669,383.31334 q -0.40575,-1.48774 -0.40575,-2.43448 -0.13525,-0.94674 -0.13525,-1.62298 0,-4.46321 1.08199,-7.57393 1.08199,-3.24597 3.24597,-5.40995 0.541,-0.54099 2.70498,-1.62298 2.29922,-1.08199 5.95094,-2.56973 2.56973,-1.21724 4.05746,-2.84022 1.62299,-1.75823 1.75823,-4.19271 0.40575,-1.89348 1.62299,-4.32796 1.21724,-2.43448 2.84022,-5.2747 0.541,-0.81149 3.24597,-9.33216 2.70497,-8.52067 7.57393,-25.02101 1.35248,-5.0042 2.70497,-8.65592 1.35249,-3.65171 2.29923,-6.22144 4.32796,-11.49614 7.03293,-15.0126 2.84023,-3.65172 4.19271,-5.95095 l 0,-0.67624 -4.19271,-6.62719 5.2747,-6.08619 6.76244,-1.35249 q 2.02873,-0.27049 3.65171,-3.78696 1.75824,-3.51647 5.95095,-7.70918 0.94674,-0.27049 2.97547,-1.62298 2.16398,-1.48774 5.40995,-4.05746 2.84022,-2.29923 4.86895,-3.38122 2.02873,-1.08199 3.11072,-1.08199 3.65171,0 5.2747,1.48774 1.62298,1.48773 1.62298,3.92221 0,2.97547 -3.11072,8.65592 -3.11072,5.68044 -3.11072,8.65591 0,1.35249 0.541,2.29923 0.67624,0.81149 1.48773,1.08199 l 16.22985,8.79117 q 1.35248,0.54099 2.43447,4.32795 1.08199,3.65172 1.75824,10.14366 0.81149,5.40995 1.21724,9.06166 0.54099,3.51647 0.54099,5.68045 -0.94674,5.81569 -1.89348,11.76663 1.35249,7.57393 2.97547,15.95935 -0.81149,7.97968 -1.75823,16.22985 0,0.81149 0.27049,1.48773 0.40575,0.541 1.08199,0.67625 2.29923,0.13524 3.38122,1.21723 1.21724,1.08199 1.21724,2.97548 0,2.43447 -0.81149,3.92221 -0.67625,1.35248 -2.02873,2.16398 -1.75824,1.08199 -2.84023,1.89348 -0.94674,0.81149 -1.35248,1.35249 l 1.75823,8.38542 -2.43448,19.20531 q 0,2.43448 -0.40574,6.22144 -0.40575,3.78697 -1.21724,8.79117 -1.35249,3.65171 -2.02873,6.08619 -0.67624,2.43448 -0.67624,3.24597 0.67624,2.29923 1.21723,4.86895 -0.81149,3.65172 -1.75823,7.30343 -0.81149,3.65172 -1.62298,7.16818 -1.48774,4.73371 -3.92222,6.89769 -2.43447,2.29923 -5.68044,2.29923 -1.75823,0 -2.70498,-1.62299 -0.81149,-1.48773 -0.81149,-4.59845 0,-1.35249 0.40575,-3.92222 0.54099,-2.56972 0.54099,-3.92221 0,-0.94674 -0.27049,-2.56972 -0.2705,-1.62299 -0.2705,-2.84023 0,-3.78696 0.67624,-12.03713 0.81149,-8.38542 0.81149,-12.57813 -0.67624,-2.29923 -1.35248,-4.73371 0.40574,-2.56972 0.54099,-5.13945 0.13525,-2.70497 -0.13525,-5.0042 l 2.02873,-3.65171 -1.75823,-12.57813 -0.94674,-0.40575 q -0.81149,0 -2.43448,0.67624 -1.48773,0.541 -3.78696,1.89348 -1.62299,0.541 -5.13945,1.21724 -3.38122,0.541 -9.06167,0.67625 -2.43447,1.21724 -4.59845,2.16398 -3.11072,0.67624 -7.84443,2.43447 -4.7337,1.62299 -10.95514,4.05746 -3.65172,1.75824 -6.76244,2.84023 -2.97547,0.94674 -5.0042,0.94674 -1.62298,0 -2.70497,1.21724 -1.08199,1.21723 -1.75824,3.51646 -0.40574,2.16398 -2.02873,5.95095 -1.48773,3.78696 -4.05746,9.4674 -0.54099,1.48774 -1.48773,4.59846 -0.94674,3.11072 -2.16398,7.70918 -0.8115,1.75823 -1.89348,4.4632 -1.08199,2.56973 -2.43448,6.0862 0,1.62298 -0.40575,4.05746 -0.27049,2.29923 -0.94674,5.40995 -0.67624,1.89348 -1.89348,4.7337 -1.08199,2.97547 -2.84022,6.49194 -1.08199,2.16398 -3.11072,3.11072 -2.02873,1.08199 -5.2747,1.08199 -2.29923,0 -3.51647,-1.62299 -1.35249,-1.48773 -1.35249,-4.7337 0,-3.51647 0.8115,-8.11492 0.81149,-4.46321 2.56972,-9.87316 1.89348,-7.16818 3.24597,-11.63139 1.35249,-4.46321 1.48774,-6.62718 0.40574,-0.94675 1.21723,-3.38122 0.8115,-2.43448 1.89349,-5.95095 1.21723,-3.38121 2.29922,-7.70917 l -0.67624,-1.08199 -4.32796,0.67624 q -1.48773,-0.13525 -2.16398,-1.21724 -0.67624,-1.08199 -0.67624,-2.84022 0,-0.94674 0.2705,-2.02873 0.27049,-1.21724 0.81149,-2.84022 z m 49.09528,-24.88576 q 3.11072,0 9.19691,-1.48774 6.08619,-1.48774 9.19691,-1.48774 1.89348,0.40575 3.78697,0.67625 3.38121,-0.67625 6.62718,-1.48774 3.24597,-0.94674 6.62719,-1.62298 1.35249,-0.2705 2.02873,-0.94674 0.67624,-0.8115 0.67624,-2.02873 -0.27049,-4.05746 -0.27049,-5.5452 0,-2.56973 0.27049,-5.68045 0.40575,-3.24597 1.08199,-6.62718 l -1.62298,-6.08619 0.54099,-5.5452 q -0.54099,-2.97547 -0.94674,-5.5452 -0.27049,-2.70497 0,-4.46321 -0.27049,-0.54099 -0.94674,-1.75823 -0.67624,-1.21724 -1.48773,-2.56972 -1.35249,-2.29923 -2.84023,-4.32796 -1.35248,-2.16398 -2.70497,-4.32796 -1.89348,-2.56973 -4.05746,-3.78697 -2.16398,-1.21723 -4.46321,-1.21723 -2.70497,0 -5.5452,4.32796 -2.84022,4.32795 -5.2747,13.11912 -0.40574,1.08199 -2.29922,4.46321 -1.75824,3.38121 -5.13945,8.79116 -0.541,5.13945 -3.65172,12.84863 -3.11072,7.57393 -8.65592,17.85283 -0.67624,0.94674 -0.81149,1.62298 0,0.67625 0,1.48774 0,0.94674 0.40575,1.48773 0.54099,0.40575 1.48773,0.40575 1.35249,0 4.32796,-0.2705 3.11072,-0.27049 4.46321,-0.27049 z" />
      </g>
      <g
         id="text4176"
         style="font-style:normal;font-weight:normal;font-size:296.31256104px;line-height:125%;font-family:sans-serif;letter-spacing:0px;word-spacing:0px;fill:#000000;fill-opacity:1;stroke:none;stroke-width:1px;stroke-linecap:butt;stroke-linejoin:miter;stroke-opacity:1"
         transform="matrix(0.02795537,0.45805695,-0.63320498,0.11707304,307.80595,89.035072)">
        <path
           inkscape:connector-curvature="0"
           d="m 862.94506,-184.00036 q 0.93955,1.47871 2.04885,3.4114 1.25035,1.93393 2.81865,4.43622 0.75535,0.79844 1.0806,1.47998 0.31805,0.56833 0.354,1.13422 -8.25895,3.09435 -17.3998,5.61538 -9.1409,2.52103 -19.2903,4.69386 -2.64315,0.54225 -6.4071,1.18776 -3.63025,0.53356 -8.3596,1.50986 -3.73525,1.09822 -9.2748,2.63297 -5.40555,1.42281 -12.63715,2.94265 -4.5885,0.97757 -9.32505,1.84075 -4.5957,0.8644 -9.1984,1.61559 -5.70935,1.08081 -10.6085,1.60322 -4.75825,0.52363 -8.14235,0.4938 -8.88335,-0.0782 -13.42715,-2.83306 -4.6848,-2.75597 -5.0301,-8.1884 -0.3525,-5.54559 1.86905,-10.50295 2.0733,-5.07174 6.8617,-9.55404 1.2949,-1.7984 3.4072,-4.04204 2.2532,-2.24237 5.1755,-5.04441 2.02865,-1.33947 5.23295,-4.13907 3.19705,-2.91272 7.66755,-7.96338 3.04165,-3.14033 6.20275,-6.61893 3.30215,-3.47738 6.32945,-6.84408 1.45035,-1.5708 3.5409,-4.15394 2.23175,-2.58192 4.97695,-5.95107 1.74675,-1.34197 3.87325,-3.35922 2.2677,-2.01604 4.908,-4.82057 3.68915,-4.03955 7.72935,-9.2071 4.17405,-5.2795 8.70635,-11.57384 7.2776,-9.66349 10.6963,-15.74142 3.55244,-6.18987 3.38695,-8.79292 -0.0937,-1.47127 -2.4431,-2.96245 -2.35685,-1.6043 -7.11065,-3.22978 -4.03455,-1.39293 -7.17975,-2.09932 -3.0115,-0.81829 -5.1337,-0.95013 l -10.73805,-0.43394 q -1.8618,-0.46887 -3.86465,-0.939 -2.01,-0.58325 -4.4359,-1.05709 l -6.79425,1.74994 q -2.72225,-0.70268 -4.99985,-1.06208 -2.1367,-0.35819 -4.2517,-0.37683 -8.43155,0.37814 -15.57965,0.99381 l -3.87905,-1.16527 q -0.73385,-0.45893 -1.236,-1.70759 -0.36835,-1.3606 -1.21015,-3.51714 0.89355,-1.46256 2.3007,-3.71242 1.4001,-2.36301 3.04615,-5.28942 0.4633,-1.57951 0.5539,-2.3705 1.44025,-3.94624 5.25885,-5.94858 3.9526,-2.11428 10.86179,-2.05339 3.38411,0.0299 6.07766,0.27974 2.83445,0.25122 5.10485,0.49747 l 2.0533,1.26229 q 2.78405,-0.54099 4.58835,-0.97756 1.79705,-0.5497 2.7841,-0.541 8.11645,1.31576 16.9451,2.7509 2.4043,0.13429 5.9582,0.61807 3.54675,0.3706 8.1021,1.08941 2.0388,1.03597 5.07175,2.19386 3.17415,1.15906 7.35675,2.66638 5.45895,1.63169 9.72795,4.49712 4.26185,2.75225 6.8747,6.16864 2.4431,2.96246 3.6028,5.68738 1.1525,2.6117 1.3036,4.98841 0.23745,3.73478 -0.6892,6.89377 -0.92655,3.15896 -3.01725,5.7421 l -1.55246,4.39773 q -0.22439,0.9029 -1.25174,2.47742 -0.88633,1.57578 -2.33675,3.14658 -2.2315,2.58186 -4.87905,5.27324 -0.6187,1.35189 -2.3366,3.14658 -1.7252,1.68146 -4.42305,3.58057 -0.5495,0.22139 -1.3452,1.00617 -0.6548,0.78602 -1.28785,1.91158 -1.38555,2.58935 -4.4056,6.06923 -3.0202,3.47982 -7.5194,8.07777 -5.9712,5.82925 -9.40705,9.41852 -3.30217,3.47738 -4.61865,4.93623 -1.6201,1.11685 -3.233,2.34688 -1.61295,1.23002 -3.4792,2.91027 l -1.6172,3.37908 q -0.61145,1.46511 -4.56105,5.84166 -3.9568,4.2634 -11.1035,11.55271 -7.04155,6.72466 -10.2933,10.99426 -3.25175,4.2696 -3.15105,5.85404 0.0509,0.79227 1.19995,1.1417 l 5.4488,-0.74375 q 1.99565,0.35691 3.8431,0.59943 3.49635,-0.42161 7.0144,-0.50372 l 5.007,1.17525 q 3.88345,-0.98378 6.82295,-1.29722 3.0734,-0.42538 5.1884,-0.40674 7.19125,0.0634 13.3452,-0.67417 6.15385,-0.73754 11.2631,-2.38922 2.8058,-0.20149 6.9927,-0.84328 4.1798,-0.75495 9.60712,-1.83821 1.51508,-0.55224 3.17833,-0.99 1.66334,-0.4378 3.45315,-1.10071 2.23455,-0.31965 4.18705,-0.64179 2.0935,-0.32087 3.47475,-0.76111 z M 1074.5396,-324.1786 q 4.5874,-0.55555 10.5593,-1.17627 6.0039,-0.74572 13.762,-1.66665 2.5263,-0.52014 4.6191,-0.68045 1.7543,-0.17525 3.4451,-0.10058 7.5519,7.91397 13.2213,16.50296 5.6694,8.58895 10.1013,18.00765 1.0838,2.44841 2.2506,5.91118 0.8605,3.3229 2.8181,7.70502 2.519,3.52246 5.9753,8.72882 3.1503,5.06647 6.2238,11.772 1.9897,4.25715 3.6091,8.62433 1.6511,4.24223 2.9645,8.46952 2.0719,5.27158 2.6451,9.71887 0.6049,4.32238 -0.1617,7.32079 -2.0116,7.87082 -11.1166,11.38552 -9.1366,3.63956 -25.3668,2.92302 -16.5685,-0.73147 -30.8718,-3.63712 -14.6729,-2.79562 -27.0483,-7.89036 -5.091,-1.48819 -11.3428,-3.78568 -6.2198,-2.42245 -13.9703,-5.54418 -3.5788,-2.05312 -11.2654,-5.42471 -8.0255,-3.38659 -22.1553,-8.3061 -8.73344,-3.29144 -18.44909,-6.75263 -9.68385,-3.5861 -19.0933,-6.9074 -4.38265,-1.58328 -11.64875,-3.92557 -7.23405,-2.46719 -16.70735,-5.53863 -3.64245,-1.80326 -9.21795,-4.07094 -5.54355,-2.39258 -13.3582,-5.26446 -11.27855,-4.03553 -25.8427,-8.59515 -14.8703,-4.69951 -32.68805,-9.90815 -27.29105,-8.28012 -44.6879,-12.45943 -17.70315,-4.31917 -25.4802,-4.66254 -4.39565,-0.19408 -9.30225,1.61083 -5.24466,1.78991 -11.03235,5.70376 -4.9516,3.31899 -7.68285,5.97794 -3.03735,2.51913 -3.85465,4.37822 l -3.44105,9.45012 q -1.76765,1.56443 -3.56725,3.25381 -2.13765,1.67441 -4.033,3.73856 l 3.84545,6.36061 q -2.6354,2.28415 -4.16075,4.23833 -1.49335,1.82923 -1.97235,3.7032 -0.56335,7.55575 -0.16305,14.01693 l -4.24345,3.22394 q -1.51215,0.56495 -5.3274,0.77554 -4.1215,0.0709 -10.7055,0.41176 -4.1723,-1.06861 -10.5837,-2.74143 -6.74949,-1.68775 -15.12565,-3.70002 -4.60615,-0.70874 -6.94115,-0.93817 -11.45135,-2.02167 -16.64365,-5.78855 -5.49842,-3.90668 -3.93385,-10.02842 0.7664,-2.99841 2.04935,-5.34229 1.31495,-2.46883 2.502,-4.4379 l 4.16655,-1.58485 q -1.0521,-2.57331 -1.9895,-4.25715 -1.27555,-1.69879 -1.052,-2.57332 5.53945,-6.95702 11.5768,-14.52377 0.88105,-2.10896 3.03178,-5.17259 1.81267,-3.07852 4.86322,-6.98683 3.4902,-1.61472 7.54215,-4.08904 4.08375,-2.59928 9.4055,-6.02829 5.94715,-4.53847 15.3264,-7.78834 9.04115,-3.26479 19.728,-4.94083 9.30215,-1.61082 17.64085,-2.12705 8.0005,-0.53122 15.10125,-0.21773 11.1583,0.49264 20.3705,1.91011 9.2122,1.41742 16.4782,3.75971 l 12.77205,2.20635 q 2.6412,0.36927 7.11955,1.57772 4.51035,1.08356 8.8929,2.66682 7.23415,2.4672 14.71075,5.32415 3.8978,0.80382 8.8928,2.66681 4.65685,1.84806 9.76655,4.60052 0.54855,0.52958 2.7237,1.38365 2.2074,0.7292 5.429,1.50311 7.42575,1.71761 17.17335,5.0539 9.74765,3.33625 22.52535,8.19602 16.14575,6.39829 26.13585,10.12423 9.68365,3.58615 13.7601,5.02953 2.998,1.64849 6.33435,3.31191 3.3362,1.66337 7.9612,3.63639 l 9.7287,2.07195 q 4.23615,0.81876 16.46539,5.14896 11.8909,4.3153 32.1452,12.03201 18.5953,7.51715 30.646,11.20778 12.0509,3.69059 16.7849,3.8996 2.3666,0.10448 3.6366,-0.8502 l -1.1219,-4.97688 q 1.4613,-1.70431 2.5531,-3.29856 -0.5544,-3.18306 -0.096,-6.32132 l 4.4989,-4.22344 q -2.1492,-3.63248 -2.4927,-6.30083 -0.65,-2.80829 -0.1711,-4.68226 1.6282,-6.37165 0.6663,-11.97321 -0.9617,-5.60159 -4.8523,-10.44802 -0.039,-2.52856 -1.1083,-6.36611 -1.4089,-3.85252 -3.5453,-8.8742 -1.3392,-1.44891 -2.3087,-3.00781 -0.9694,-1.55895 -2.5829,-3.27265 -0.5035,-2.04373 -1.0709,-3.83755 -0.5355,-1.91882 -1.5689,-3.22785 z m 29.3819,144.39113 q 4.5875,-0.55555 10.5592,-1.17633 6.0034,-0.74567 13.7616,-1.66659 2.5266,-0.5202 4.6191,-0.68045 1.7546,-0.17525 3.445,-0.10064 7.5518,7.91403 13.2218,16.50301 5.6694,8.58894 10.1009,18.00766 1.0837,2.44835 2.2506,5.91114 0.8605,3.32295 2.818,7.70501 2.519,3.52251 5.9758,8.72882 3.1504,5.06647 6.2237,11.77203 1.9894,4.25717 3.6088,8.62435 1.651,4.24222 2.9645,8.469514 2.0719,5.271559 2.645,9.718871 0.6049,4.322385 -0.1612,7.320788 -2.0114,7.870821 -11.1165,11.385488 -9.1373,3.639601 -25.3675,2.923051 -16.5685,-0.73148 -30.8711,-3.637121 -14.673,-2.795635 -27.049,-7.890366 -5.0908,-1.488182 -11.3423,-3.785686 -6.2197,-2.422436 -13.9707,-5.544176 -3.5783,-2.05314 -11.2655,-5.424748 -8.025,-3.386543 -22.1552,-8.306045 -8.7334,-3.29144 -18.4487,-6.75264 -9.684,-3.58609 -19.09344,-6.9074 -4.3825,-1.58327 -11.64859,-3.92555 -7.23421,-2.46725 -16.70761,-5.5387 -3.6424,-1.80326 -9.2179,-4.07089 -5.54355,-2.39258 -13.3582,-5.26445 -11.27865,-4.03559 -25.84275,-8.59521 -14.87035,-4.69946 -32.6879,-9.90814 -27.29115,-8.28007 -44.68808,-12.4594 -17.70307,-4.3192 -25.48012,-4.66256 -4.39565,-0.19403 -9.30215,1.61081 -5.24475,1.78997 -11.0323,5.70377 -4.95165,3.31899 -7.683,5.97799 -3.03745,2.51907 -3.8545,4.37816 l -3.44115,9.45017 q -1.7677,1.56444 -3.5673,3.25377 -2.13755,1.67445 -4.03295,3.73861 l 3.84545,6.36061 q -2.63555,2.28415 -4.16085,4.23833 -1.4933,1.82919 -1.9722,3.70319 -0.5634,7.55573 -0.16315,14.01693 l -4.24345,3.2239 q -1.51225,0.56499 -5.3274,0.77554 -4.1214,0.0709 -10.7056,0.41181 -4.17205,-1.06861 -10.5835,-2.74143 -6.74945,-1.6878 -15.12575,-3.70007 -4.60615,-0.70869 -6.9411,-0.93813 -11.45135,-2.02171 -16.6436,-5.78855 -5.4985,-3.90672 -3.9339,-10.02846 0.76635,-2.99838 2.04935,-5.34229 1.3148,-2.46879 2.5021,-4.4379 l 4.1664,-1.58485 q -1.0521,-2.57332 -1.9895,-4.25716 -1.27545,-1.69878 -1.05195,-2.57332 5.53955,-6.95701 11.57685,-14.52372 0.88095,-2.10894 3.0318,-5.17258 1.8126,-3.07857 4.86325,-6.98689 3.49015,-1.61472 7.542,-4.08903 4.0838,-2.59923 9.4055,-6.02824 5.94715,-4.53848 15.3265,-7.78839 9.04115,-3.2648 19.7278,-4.94078 9.30235,-1.61082 17.64105,-2.12711 8.00045,-0.53118 15.10115,-0.21768 11.1583,0.49264 20.37055,1.91006 9.2122,1.41747 16.47825,3.75976 l 12.77205,2.20635 q 2.6412,0.36928 7.1195,1.57774 4.5103,1.08355 8.8928,2.66681 7.23425,2.46719 14.7107,5.32413 3.8979,0.80383 8.8929,2.66682 4.65695,1.84803 9.76645,4.60048 0.54855,0.52958 2.7239,1.38369 2.2073,0.72916 5.4289,1.50312 7.4257,1.71762 17.17335,5.05385 9.7477,3.33624 22.5253,8.19607 16.146,6.39824 26.1358,10.12422 9.6839,3.58611 13.76015,5.02953 2.9983,1.64845 6.33457,3.31187 3.33612,1.66342 7.96102,3.63643 l 9.7287,2.07196 q 4.2363,0.81876 16.4653,5.14895 11.8912,4.31525 32.1452,12.03202 18.5957,7.51715 30.6461,11.20778 12.0506,3.690585 16.7845,3.899575 2.3667,0.104494 3.6367,-0.850188 l -1.1216,-4.976917 q 1.4616,-1.70427 2.5529,-3.29857 -0.5544,-3.18305 -0.095,-6.32131 l 4.4988,-4.22339 q -2.1488,-3.63248 -2.4928,-6.30088 -0.65,-2.80825 -0.1712,-4.68227 1.6287,-6.3716 0.6667,-11.97315 -0.962,-5.60159 -4.8525,-10.44807 -0.039,-2.52852 -1.1085,-6.36611 -1.4088,-3.85248 -3.5446,-8.87416 -1.3399,-1.44892 -2.3091,-3.00785 -0.969,-1.55889 -2.583,-3.2726 -0.5035,-2.04373 -1.0709,-3.8376 -0.5352,-1.91877 -1.5684,-3.2278 z"
           style="font-style:normal;font-variant:normal;font-weight:normal;font-stretch:normal;font-family:Mistral;-inkscape-font-specification:Mistral"
           id="path4187" />
      </g>
      <g
         id="text4190"
         style="font-style:normal;font-weight:normal;font-size:411.45849609px;line-height:125%;font-family:sans-serif;letter-spacing:0px;word-spacing:0px;fill:#000000;fill-opacity:1;stroke:none;stroke-width:1px;stroke-linecap:butt;stroke-linejoin:miter;stroke-opacity:1"
         transform="matrix(0.78562596,0,0,1.3519345,21.365204,-602.69396)">
        <path
           sodipodi:nodetypes="cccccccccccc"
           inkscape:connector-curvature="0"
           id="path4198"
           d="m 403.83121,730.66049 c -46.71979,21.92836 -38.26174,-11.73987 -52.11332,1.10846 -14.46439,30.34707 -26.97183,115.52423 -26.97183,115.52423 -5.66298,17.77407 -8.18554,37.75865 -12.38925,61.34958 -4.45869,12.29597 -5.78837,25.63279 -11.5196,37.62934 -2.26297,10.88327 -10.80385,18.60729 -21.32758,21.47512 -10.89634,4.38822 -31.16168,-0.25715 -41.66264,-31.17554 -14.97371,-33.9847 -15.88272,-54.17659 -19.20205,-71.25447 12.61302,5.91904 60.14812,-8.7018 50.65814,-31.33636 25.91145,22.8651 -1.89205,62.60602 4.54617,80.00251 32.14321,-56.69436 60.76915,-138.73173 67.99344,-189.73726 25.03267,-17.40427 36.89444,19.89511 61.98852,6.41439 z"
           style="font-style:normal;font-variant:normal;font-weight:normal;font-stretch:normal;font-family:Mistral;-inkscape-font-specification:Mistral" />
      </g>
    </g>
    <g
       id="g4217"
       transform="translate(774.90731,-10.018336)"
       style="fill:#ffffff">
      <path
         style="opacity:1;fill:#ffffff;fill-opacity:1;stroke:none;stroke-width:0.088;stroke-linecap:round;stroke-linejoin:round;stroke-miterlimit:4;stroke-dasharray:none;stroke-opacity:1"
         d="m 367.14258,149.50586 a 250,250 0 0 0 -250,250 250,250 0 0 0 48.3418,147.25586 230,230 0 0 1 -28.3418,-110.11328 230,230 0 0 1 230,-230 230,230 0 0 1 230,230 230,230 0 0 1 -27.70117,109.32422 250,250 0 0 0 47.70117,-146.4668 250,250 0 0 0 -250,-250 z"
         id="path4219"
         inkscape:connector-curvature="0" />
      <path
         style="opacity:1;fill:#ffffff;fill-opacity:1;stroke:none;stroke-width:0.088;stroke-linecap:round;stroke-linejoin:round;stroke-miterlimit:4;stroke-dasharray:none;stroke-opacity:1"
         d="m 100.67534,421.39516 -12.109354,19.70773 a 132.64297,29.36367 76.569394 0 0 13.131214,106.64002 132.64297,29.36367 76.569394 0 0 36.47337,101.06971 l 19.70255,12.1068 14.22265,-23.14507 A 132.64297,29.36367 76.569394 0 0 158.81871,534.10205 132.64297,29.36367 76.569394 0 0 123.90212,435.6671 l -23.22678,-14.27194 z m 9.80464,36.70182 a 85.154508,18.85098 76.569394 0 1 38.11335,78.44725 85.154508,18.85098 76.569394 0 1 1.44352,87.20354 85.154508,18.85098 76.569394 0 1 -38.11427,-78.4464 85.154508,18.85098 76.569394 0 1 -1.4426,-87.20439 z"
         id="path4221"
         inkscape:connector-curvature="0" />
      <path
         inkscape:connector-curvature="0"
         id="path4223"
         d="m 92.92667,431.68636 -11.068792,18.01371 a 121.24555,26.840542 76.569394 0 0 12.003126,97.47684 121.24555,26.840542 76.569394 0 0 33.338766,92.38555 l 18.00951,11.0664 13.0006,-21.15675 a 121.24555,26.840542 76.569394 0 0 -12.13605,-94.76374 121.24555,26.840542 76.569394 0 0 -31.91611,-89.97671 l -21.23105,-13.0453 z m 8.96219,33.5475 a 77.83746,17.231172 76.569394 0 1 34.83839,71.70685 77.83746,17.231172 76.569394 0 1 1.3196,79.71058 77.83746,17.231172 76.569394 0 1 -34.83993,-71.70608 77.83746,17.231172 76.569394 0 1 -1.31806,-79.71135 z"
         style="opacity:1;fill:#ffffff;fill-opacity:1;stroke:none;stroke-width:0.088;stroke-linecap:round;stroke-linejoin:round;stroke-miterlimit:4;stroke-dasharray:none;stroke-opacity:1" />
      <path
         inkscape:connector-curvature="0"
         id="path4225"
         d="m 635.55612,414.45537 12.10935,19.70709 a 29.36367,132.64297 13.430606 0 1 -13.1312,106.64002 29.36367,132.64297 13.430606 0 1 -36.47337,101.07035 l -19.70255,12.1068 -14.22265,-23.14571 a 29.36367,132.64297 13.430606 0 1 13.27706,-103.67166 29.36367,132.64297 13.430606 0 1 34.91659,-98.43495 l 23.22677,-14.27194 z m -9.80463,36.70118 a 18.85098,85.154508 13.430606 0 0 -38.11335,78.44725 18.85098,85.154508 13.430606 0 0 -1.44352,87.20418 18.85098,85.154508 13.430606 0 0 38.11427,-78.44704 18.85098,85.154508 13.430606 0 0 1.4426,-87.20439 z"
         style="opacity:1;fill:#ffffff;fill-opacity:1;stroke:none;stroke-width:0.088;stroke-linecap:round;stroke-linejoin:round;stroke-miterlimit:4;stroke-dasharray:none;stroke-opacity:1" />
      <path
         style="opacity:1;fill:#ffffff;fill-opacity:1;stroke:none;stroke-width:0.088;stroke-linecap:round;stroke-linejoin:round;stroke-miterlimit:4;stroke-dasharray:none;stroke-opacity:1"
         d="m 643.30476,424.74593 11.06879,18.01435 a 26.840542,121.24555 13.430606 0 1 -12.00312,97.4762 26.840542,121.24555 13.430606 0 1 -33.33873,92.38555 l -18.00951,11.0664 -13.0006,-21.15611 a 26.840542,121.24555 13.430606 0 1 12.13605,-94.76374 26.840542,121.24555 13.430606 0 1 31.91611,-89.97735 l 21.23101,-13.0453 z m -8.96215,33.5475 a 17.231172,77.83746 13.430606 0 0 -34.83839,71.70685 17.231172,77.83746 13.430606 0 0 -1.3196,79.71058 17.231172,77.83746 13.430606 0 0 34.83993,-71.70608 17.231172,77.83746 13.430606 0 0 1.31806,-79.71135 z"
         id="path4227"
         inkscape:connector-curvature="0" />
      <g
         transform="scale(0.66893883,1.494905)"
         style="font-style:normal;font-weight:normal;font-size:276.98934937px;line-height:125%;font-family:sans-serif;letter-spacing:0px;word-spacing:0px;fill:#ffffff;fill-opacity:1;stroke:none;stroke-width:1px;stroke-linecap:butt;stroke-linejoin:miter;stroke-opacity:1"
         id="g4229">
        <path
           d="m 449.07669,383.31334 q -0.40575,-1.48774 -0.40575,-2.43448 -0.13525,-0.94674 -0.13525,-1.62298 0,-4.46321 1.08199,-7.57393 1.08199,-3.24597 3.24597,-5.40995 0.541,-0.54099 2.70498,-1.62298 2.29922,-1.08199 5.95094,-2.56973 2.56973,-1.21724 4.05746,-2.84022 1.62299,-1.75823 1.75823,-4.19271 0.40575,-1.89348 1.62299,-4.32796 1.21724,-2.43448 2.84022,-5.2747 0.541,-0.81149 3.24597,-9.33216 2.70497,-8.52067 7.57393,-25.02101 1.35248,-5.0042 2.70497,-8.65592 1.35249,-3.65171 2.29923,-6.22144 4.32796,-11.49614 7.03293,-15.0126 2.84023,-3.65172 4.19271,-5.95095 l 0,-0.67624 -4.19271,-6.62719 5.2747,-6.08619 6.76244,-1.35249 q 2.02873,-0.27049 3.65171,-3.78696 1.75824,-3.51647 5.95095,-7.70918 0.94674,-0.27049 2.97547,-1.62298 2.16398,-1.48774 5.40995,-4.05746 2.84022,-2.29923 4.86895,-3.38122 2.02873,-1.08199 3.11072,-1.08199 3.65171,0 5.2747,1.48774 1.62298,1.48773 1.62298,3.92221 0,2.97547 -3.11072,8.65592 -3.11072,5.68044 -3.11072,8.65591 0,1.35249 0.541,2.29923 0.67624,0.81149 1.48773,1.08199 l 16.22985,8.79117 q 1.35248,0.54099 2.43447,4.32795 1.08199,3.65172 1.75824,10.14366 0.81149,5.40995 1.21724,9.06166 0.54099,3.51647 0.54099,5.68045 -0.94674,5.81569 -1.89348,11.76663 1.35249,7.57393 2.97547,15.95935 -0.81149,7.97968 -1.75823,16.22985 0,0.81149 0.27049,1.48773 0.40575,0.541 1.08199,0.67625 2.29923,0.13524 3.38122,1.21723 1.21724,1.08199 1.21724,2.97548 0,2.43447 -0.81149,3.92221 -0.67625,1.35248 -2.02873,2.16398 -1.75824,1.08199 -2.84023,1.89348 -0.94674,0.81149 -1.35248,1.35249 l 1.75823,8.38542 -2.43448,19.20531 q 0,2.43448 -0.40574,6.22144 -0.40575,3.78697 -1.21724,8.79117 -1.35249,3.65171 -2.02873,6.08619 -0.67624,2.43448 -0.67624,3.24597 0.67624,2.29923 1.21723,4.86895 -0.81149,3.65172 -1.75823,7.30343 -0.81149,3.65172 -1.62298,7.16818 -1.48774,4.73371 -3.92222,6.89769 -2.43447,2.29923 -5.68044,2.29923 -1.75823,0 -2.70498,-1.62299 -0.81149,-1.48773 -0.81149,-4.59845 0,-1.35249 0.40575,-3.92222 0.54099,-2.56972 0.54099,-3.92221 0,-0.94674 -0.27049,-2.56972 -0.2705,-1.62299 -0.2705,-2.84023 0,-3.78696 0.67624,-12.03713 0.81149,-8.38542 0.81149,-12.57813 -0.67624,-2.29923 -1.35248,-4.73371 0.40574,-2.56972 0.54099,-5.13945 0.13525,-2.70497 -0.13525,-5.0042 l 2.02873,-3.65171 -1.75823,-12.57813 -0.94674,-0.40575 q -0.81149,0 -2.43448,0.67624 -1.48773,0.541 -3.78696,1.89348 -1.62299,0.541 -5.13945,1.21724 -3.38122,0.541 -9.06167,0.67625 -2.43447,1.21724 -4.59845,2.16398 -3.11072,0.67624 -7.84443,2.43447 -4.7337,1.62299 -10.95514,4.05746 -3.65172,1.75824 -6.76244,2.84023 -2.97547,0.94674 -5.0042,0.94674 -1.62298,0 -2.70497,1.21724 -1.08199,1.21723 -1.75824,3.51646 -0.40574,2.16398 -2.02873,5.95095 -1.48773,3.78696 -4.05746,9.4674 -0.54099,1.48774 -1.48773,4.59846 -0.94674,3.11072 -2.16398,7.70918 -0.8115,1.75823 -1.89348,4.4632 -1.08199,2.56973 -2.43448,6.0862 0,1.62298 -0.40575,4.05746 -0.27049,2.29923 -0.94674,5.40995 -0.67624,1.89348 -1.89348,4.7337 -1.08199,2.97547 -2.84022,6.49194 -1.08199,2.16398 -3.11072,3.11072 -2.02873,1.08199 -5.2747,1.08199 -2.29923,0 -3.51647,-1.62299 -1.35249,-1.48773 -1.35249,-4.7337 0,-3.51647 0.8115,-8.11492 0.81149,-4.46321 2.56972,-9.87316 1.89348,-7.16818 3.24597,-11.63139 1.35249,-4.46321 1.48774,-6.62718 0.40574,-0.94675 1.21723,-3.38122 0.8115,-2.43448 1.89349,-5.95095 1.21723,-3.38121 2.29922,-7.70917 l -0.67624,-1.08199 -4.32796,0.67624 q -1.48773,-0.13525 -2.16398,-1.21724 -0.67624,-1.08199 -0.67624,-2.84022 0,-0.94674 0.2705,-2.02873 0.27049,-1.21724 0.81149,-2.84022 z m 49.09528,-24.88576 q 3.11072,0 9.19691,-1.48774 6.08619,-1.48774 9.19691,-1.48774 1.89348,0.40575 3.78697,0.67625 3.38121,-0.67625 6.62718,-1.48774 3.24597,-0.94674 6.62719,-1.62298 1.35249,-0.2705 2.02873,-0.94674 0.67624,-0.8115 0.67624,-2.02873 -0.27049,-4.05746 -0.27049,-5.5452 0,-2.56973 0.27049,-5.68045 0.40575,-3.24597 1.08199,-6.62718 l -1.62298,-6.08619 0.54099,-5.5452 q -0.54099,-2.97547 -0.94674,-5.5452 -0.27049,-2.70497 0,-4.46321 -0.27049,-0.54099 -0.94674,-1.75823 -0.67624,-1.21724 -1.48773,-2.56972 -1.35249,-2.29923 -2.84023,-4.32796 -1.35248,-2.16398 -2.70497,-4.32796 -1.89348,-2.56973 -4.05746,-3.78697 -2.16398,-1.21723 -4.46321,-1.21723 -2.70497,0 -5.5452,4.32796 -2.84022,4.32795 -5.2747,13.11912 -0.40574,1.08199 -2.29922,4.46321 -1.75824,3.38121 -5.13945,8.79116 -0.541,5.13945 -3.65172,12.84863 -3.11072,7.57393 -8.65592,17.85283 -0.67624,0.94674 -0.81149,1.62298 0,0.67625 0,1.48774 0,0.94674 0.40575,1.48773 0.54099,0.40575 1.48773,0.40575 1.35249,0 4.32796,-0.2705 3.11072,-0.27049 4.46321,-0.27049 z"
           style="font-style:normal;font-variant:normal;font-weight:normal;font-stretch:normal;font-family:Mistral;-inkscape-font-specification:Mistral;fill:#ffffff"
           id="path4231"
           inkscape:connector-curvature="0" />
      </g>
      <g
         transform="matrix(0.02795537,0.45805695,-0.63320498,0.11707304,307.80595,89.035072)"
         style="font-style:normal;font-weight:normal;font-size:296.31256104px;line-height:125%;font-family:sans-serif;letter-spacing:0px;word-spacing:0px;fill:#ffffff;fill-opacity:1;stroke:none;stroke-width:1px;stroke-linecap:butt;stroke-linejoin:miter;stroke-opacity:1"
         id="g4233">
        <path
           id="path4235"
           style="font-style:normal;font-variant:normal;font-weight:normal;font-stretch:normal;font-family:Mistral;-inkscape-font-specification:Mistral;fill:#ffffff"
           d="m 862.94506,-184.00036 q 0.93955,1.47871 2.04885,3.4114 1.25035,1.93393 2.81865,4.43622 0.75535,0.79844 1.0806,1.47998 0.31805,0.56833 0.354,1.13422 -8.25895,3.09435 -17.3998,5.61538 -9.1409,2.52103 -19.2903,4.69386 -2.64315,0.54225 -6.4071,1.18776 -3.63025,0.53356 -8.3596,1.50986 -3.73525,1.09822 -9.2748,2.63297 -5.40555,1.42281 -12.63715,2.94265 -4.5885,0.97757 -9.32505,1.84075 -4.5957,0.8644 -9.1984,1.61559 -5.70935,1.08081 -10.6085,1.60322 -4.75825,0.52363 -8.14235,0.4938 -8.88335,-0.0782 -13.42715,-2.83306 -4.6848,-2.75597 -5.0301,-8.1884 -0.3525,-5.54559 1.86905,-10.50295 2.0733,-5.07174 6.8617,-9.55404 1.2949,-1.7984 3.4072,-4.04204 2.2532,-2.24237 5.1755,-5.04441 2.02865,-1.33947 5.23295,-4.13907 3.19705,-2.91272 7.66755,-7.96338 3.04165,-3.14033 6.20275,-6.61893 3.30215,-3.47738 6.32945,-6.84408 1.45035,-1.5708 3.5409,-4.15394 2.23175,-2.58192 4.97695,-5.95107 1.74675,-1.34197 3.87325,-3.35922 2.2677,-2.01604 4.908,-4.82057 3.68915,-4.03955 7.72935,-9.2071 4.17405,-5.2795 8.70635,-11.57384 7.2776,-9.66349 10.6963,-15.74142 3.55244,-6.18987 3.38695,-8.79292 -0.0937,-1.47127 -2.4431,-2.96245 -2.35685,-1.6043 -7.11065,-3.22978 -4.03455,-1.39293 -7.17975,-2.09932 -3.0115,-0.81829 -5.1337,-0.95013 l -10.73805,-0.43394 q -1.8618,-0.46887 -3.86465,-0.939 -2.01,-0.58325 -4.4359,-1.05709 l -6.79425,1.74994 q -2.72225,-0.70268 -4.99985,-1.06208 -2.1367,-0.35819 -4.2517,-0.37683 -8.43155,0.37814 -15.57965,0.99381 l -3.87905,-1.16527 q -0.73385,-0.45893 -1.236,-1.70759 -0.36835,-1.3606 -1.21015,-3.51714 0.89355,-1.46256 2.3007,-3.71242 1.4001,-2.36301 3.04615,-5.28942 0.4633,-1.57951 0.5539,-2.3705 1.44025,-3.94624 5.25885,-5.94858 3.9526,-2.11428 10.86179,-2.05339 3.38411,0.0299 6.07766,0.27974 2.83445,0.25122 5.10485,0.49747 l 2.0533,1.26229 q 2.78405,-0.54099 4.58835,-0.97756 1.79705,-0.5497 2.7841,-0.541 8.11645,1.31576 16.9451,2.7509 2.4043,0.13429 5.9582,0.61807 3.54675,0.3706 8.1021,1.08941 2.0388,1.03597 5.07175,2.19386 3.17415,1.15906 7.35675,2.66638 5.45895,1.63169 9.72795,4.49712 4.26185,2.75225 6.8747,6.16864 2.4431,2.96246 3.6028,5.68738 1.1525,2.6117 1.3036,4.98841 0.23745,3.73478 -0.6892,6.89377 -0.92655,3.15896 -3.01725,5.7421 l -1.55246,4.39773 q -0.22439,0.9029 -1.25174,2.47742 -0.88633,1.57578 -2.33675,3.14658 -2.2315,2.58186 -4.87905,5.27324 -0.6187,1.35189 -2.3366,3.14658 -1.7252,1.68146 -4.42305,3.58057 -0.5495,0.22139 -1.3452,1.00617 -0.6548,0.78602 -1.28785,1.91158 -1.38555,2.58935 -4.4056,6.06923 -3.0202,3.47982 -7.5194,8.07777 -5.9712,5.82925 -9.40705,9.41852 -3.30217,3.47738 -4.61865,4.93623 -1.6201,1.11685 -3.233,2.34688 -1.61295,1.23002 -3.4792,2.91027 l -1.6172,3.37908 q -0.61145,1.46511 -4.56105,5.84166 -3.9568,4.2634 -11.1035,11.55271 -7.04155,6.72466 -10.2933,10.99426 -3.25175,4.2696 -3.15105,5.85404 0.0509,0.79227 1.19995,1.1417 l 5.4488,-0.74375 q 1.99565,0.35691 3.8431,0.59943 3.49635,-0.42161 7.0144,-0.50372 l 5.007,1.17525 q 3.88345,-0.98378 6.82295,-1.29722 3.0734,-0.42538 5.1884,-0.40674 7.19125,0.0634 13.3452,-0.67417 6.15385,-0.73754 11.2631,-2.38922 2.8058,-0.20149 6.9927,-0.84328 4.1798,-0.75495 9.60712,-1.83821 1.51508,-0.55224 3.17833,-0.99 1.66334,-0.4378 3.45315,-1.10071 2.23455,-0.31965 4.18705,-0.64179 2.0935,-0.32087 3.47475,-0.76111 z M 1074.5396,-324.1786 q 4.5874,-0.55555 10.5593,-1.17627 6.0039,-0.74572 13.762,-1.66665 2.5263,-0.52014 4.6191,-0.68045 1.7543,-0.17525 3.4451,-0.10058 7.5519,7.91397 13.2213,16.50296 5.6694,8.58895 10.1013,18.00765 1.0838,2.44841 2.2506,5.91118 0.8605,3.3229 2.8181,7.70502 2.519,3.52246 5.9753,8.72882 3.1503,5.06647 6.2238,11.772 1.9897,4.25715 3.6091,8.62433 1.6511,4.24223 2.9645,8.46952 2.0719,5.27158 2.6451,9.71887 0.6049,4.32238 -0.1617,7.32079 -2.0116,7.87082 -11.1166,11.38552 -9.1366,3.63956 -25.3668,2.92302 -16.5685,-0.73147 -30.8718,-3.63712 -14.6729,-2.79562 -27.0483,-7.89036 -5.091,-1.48819 -11.3428,-3.78568 -6.2198,-2.42245 -13.9703,-5.54418 -3.5788,-2.05312 -11.2654,-5.42471 -8.0255,-3.38659 -22.1553,-8.3061 -8.73344,-3.29144 -18.44909,-6.75263 -9.68385,-3.5861 -19.0933,-6.9074 -4.38265,-1.58328 -11.64875,-3.92557 -7.23405,-2.46719 -16.70735,-5.53863 -3.64245,-1.80326 -9.21795,-4.07094 -5.54355,-2.39258 -13.3582,-5.26446 -11.27855,-4.03553 -25.8427,-8.59515 -14.8703,-4.69951 -32.68805,-9.90815 -27.29105,-8.28012 -44.6879,-12.45943 -17.70315,-4.31917 -25.4802,-4.66254 -4.39565,-0.19408 -9.30225,1.61083 -5.24466,1.78991 -11.03235,5.70376 -4.9516,3.31899 -7.68285,5.97794 -3.03735,2.51913 -3.85465,4.37822 l -3.44105,9.45012 q -1.76765,1.56443 -3.56725,3.25381 -2.13765,1.67441 -4.033,3.73856 l 3.84545,6.36061 q -2.6354,2.28415 -4.16075,4.23833 -1.49335,1.82923 -1.97235,3.7032 -0.56335,7.55575 -0.16305,14.01693 l -4.24345,3.22394 q -1.51215,0.56495 -5.3274,0.77554 -4.1215,0.0709 -10.7055,0.41176 -4.1723,-1.06861 -10.5837,-2.74143 -6.74949,-1.68775 -15.12565,-3.70002 -4.60615,-0.70874 -6.94115,-0.93817 -11.45135,-2.02167 -16.64365,-5.78855 -5.49842,-3.90668 -3.93385,-10.02842 0.7664,-2.99841 2.04935,-5.34229 1.31495,-2.46883 2.502,-4.4379 l 4.16655,-1.58485 q -1.0521,-2.57331 -1.9895,-4.25715 -1.27555,-1.69879 -1.052,-2.57332 5.53945,-6.95702 11.5768,-14.52377 0.88105,-2.10896 3.03178,-5.17259 1.81267,-3.07852 4.86322,-6.98683 3.4902,-1.61472 7.54215,-4.08904 4.08375,-2.59928 9.4055,-6.02829 5.94715,-4.53847 15.3264,-7.78834 9.04115,-3.26479 19.728,-4.94083 9.30215,-1.61082 17.64085,-2.12705 8.0005,-0.53122 15.10125,-0.21773 11.1583,0.49264 20.3705,1.91011 9.2122,1.41742 16.4782,3.75971 l 12.77205,2.20635 q 2.6412,0.36927 7.11955,1.57772 4.51035,1.08356 8.8929,2.66682 7.23415,2.4672 14.71075,5.32415 3.8978,0.80382 8.8928,2.66681 4.65685,1.84806 9.76655,4.60052 0.54855,0.52958 2.7237,1.38365 2.2074,0.7292 5.429,1.50311 7.42575,1.71761 17.17335,5.0539 9.74765,3.33625 22.52535,8.19602 16.14575,6.39829 26.13585,10.12423 9.68365,3.58615 13.7601,5.02953 2.998,1.64849 6.33435,3.31191 3.3362,1.66337 7.9612,3.63639 l 9.7287,2.07195 q 4.23615,0.81876 16.46539,5.14896 11.8909,4.3153 32.1452,12.03201 18.5953,7.51715 30.646,11.20778 12.0509,3.69059 16.7849,3.8996 2.3666,0.10448 3.6366,-0.8502 l -1.1219,-4.97688 q 1.4613,-1.70431 2.5531,-3.29856 -0.5544,-3.18306 -0.096,-6.32132 l 4.4989,-4.22344 q -2.1492,-3.63248 -2.4927,-6.30083 -0.65,-2.80829 -0.1711,-4.68226 1.6282,-6.37165 0.6663,-11.97321 -0.9617,-5.60159 -4.8523,-10.44802 -0.039,-2.52856 -1.1083,-6.36611 -1.4089,-3.85252 -3.5453,-8.8742 -1.3392,-1.44891 -2.3087,-3.00781 -0.9694,-1.55895 -2.5829,-3.27265 -0.5035,-2.04373 -1.0709,-3.83755 -0.5355,-1.91882 -1.5689,-3.22785 z m 29.3819,144.39113 q 4.5875,-0.55555 10.5592,-1.17633 6.0034,-0.74567 13.7616,-1.66659 2.5266,-0.5202 4.6191,-0.68045 1.7546,-0.17525 3.445,-0.10064 7.5518,7.91403 13.2218,16.50301 5.6694,8.58894 10.1009,18.00766 1.0837,2.44835 2.2506,5.91114 0.8605,3.32295 2.818,7.70501 2.519,3.52251 5.9758,8.72882 3.1504,5.06647 6.2237,11.77203 1.9894,4.25717 3.6088,8.62435 1.651,4.24222 2.9645,8.469514 2.0719,5.271559 2.645,9.718871 0.6049,4.322385 -0.1612,7.320788 -2.0114,7.870821 -11.1165,11.385488 -9.1373,3.639601 -25.3675,2.923051 -16.5685,-0.73148 -30.8711,-3.637121 -14.673,-2.795635 -27.049,-7.890366 -5.0908,-1.488182 -11.3423,-3.785686 -6.2197,-2.422436 -13.9707,-5.544176 -3.5783,-2.05314 -11.2655,-5.424748 -8.025,-3.386543 -22.1552,-8.306045 -8.7334,-3.29144 -18.4487,-6.75264 -9.684,-3.58609 -19.09344,-6.9074 -4.3825,-1.58327 -11.64859,-3.92555 -7.23421,-2.46725 -16.70761,-5.5387 -3.6424,-1.80326 -9.2179,-4.07089 -5.54355,-2.39258 -13.3582,-5.26445 -11.27865,-4.03559 -25.84275,-8.59521 -14.87035,-4.69946 -32.6879,-9.90814 -27.29115,-8.28007 -44.68808,-12.4594 -17.70307,-4.3192 -25.48012,-4.66256 -4.39565,-0.19403 -9.30215,1.61081 -5.24475,1.78997 -11.0323,5.70377 -4.95165,3.31899 -7.683,5.97799 -3.03745,2.51907 -3.8545,4.37816 l -3.44115,9.45017 q -1.7677,1.56444 -3.5673,3.25377 -2.13755,1.67445 -4.03295,3.73861 l 3.84545,6.36061 q -2.63555,2.28415 -4.16085,4.23833 -1.4933,1.82919 -1.9722,3.70319 -0.5634,7.55573 -0.16315,14.01693 l -4.24345,3.2239 q -1.51225,0.56499 -5.3274,0.77554 -4.1214,0.0709 -10.7056,0.41181 -4.17205,-1.06861 -10.5835,-2.74143 -6.74945,-1.6878 -15.12575,-3.70007 -4.60615,-0.70869 -6.9411,-0.93813 -11.45135,-2.02171 -16.6436,-5.78855 -5.4985,-3.90672 -3.9339,-10.02846 0.76635,-2.99838 2.04935,-5.34229 1.3148,-2.46879 2.5021,-4.4379 l 4.1664,-1.58485 q -1.0521,-2.57332 -1.9895,-4.25716 -1.27545,-1.69878 -1.05195,-2.57332 5.53955,-6.95701 11.57685,-14.52372 0.88095,-2.10894 3.0318,-5.17258 1.8126,-3.07857 4.86325,-6.98689 3.49015,-1.61472 7.542,-4.08903 4.0838,-2.59923 9.4055,-6.02824 5.94715,-4.53848 15.3265,-7.78839 9.04115,-3.2648 19.7278,-4.94078 9.30235,-1.61082 17.64105,-2.12711 8.00045,-0.53118 15.10115,-0.21768 11.1583,0.49264 20.37055,1.91006 9.2122,1.41747 16.47825,3.75976 l 12.77205,2.20635 q 2.6412,0.36928 7.1195,1.57774 4.5103,1.08355 8.8928,2.66681 7.23425,2.46719 14.7107,5.32413 3.8979,0.80383 8.8929,2.66682 4.65695,1.84803 9.76645,4.60048 0.54855,0.52958 2.7239,1.38369 2.2073,0.72916 5.4289,1.50312 7.4257,1.71762 17.17335,5.05385 9.7477,3.33624 22.5253,8.19607 16.146,6.39824 26.1358,10.12422 9.6839,3.58611 13.76015,5.02953 2.9983,1.64845 6.33457,3.31187 3.33612,1.66342 7.96102,3.63643 l 9.7287,2.07196 q 4.2363,0.81876 16.4653,5.14895 11.8912,4.31525 32.1452,12.03202 18.5957,7.51715 30.6461,11.20778 12.0506,3.690585 16.7845,3.899575 2.3667,0.104494 3.6367,-0.850188 l -1.1216,-4.976917 q 1.4616,-1.70427 2.5529,-3.29857 -0.5544,-3.18305 -0.095,-6.32131 l 4.4988,-4.22339 q -2.1488,-3.63248 -2.4928,-6.30088 -0.65,-2.80825 -0.1712,-4.68227 1.6287,-6.3716 0.6667,-11.97315 -0.962,-5.60159 -4.8525,-10.44807 -0.039,-2.52852 -1.1085,-6.36611 -1.4088,-3.85248 -3.5446,-8.87416 -1.3399,-1.44892 -2.3091,-3.00785 -0.969,-1.55889 -2.583,-3.2726 -0.5035,-2.04373 -1.0709,-3.8376 -0.5352,-1.91877 -1.5684,-3.2278 z"
           inkscape:connector-curvature="0" />
      </g>
      <g
         transform="matrix(0.78562596,0,0,1.3519345,21.365204,-602.69396)"
         style="font-style:normal;font-weight:normal;font-size:411.45849609px;line-height:125%;font-family:sans-serif;letter-spacing:0px;word-spacing:0px;fill:#ffffff;fill-opacity:1;stroke:none;stroke-width:1px;stroke-linecap:butt;stroke-linejoin:miter;stroke-opacity:1"
         id="g4237">
        <path
           style="font-style:normal;font-variant:normal;font-weight:normal;font-stretch:normal;font-family:Mistral;-inkscape-font-specification:Mistral;fill:#ffffff"
           d="m 403.83121,730.66049 c -46.71979,21.92836 -38.26174,-11.73987 -52.11332,1.10846 -14.46439,30.34707 -26.97183,115.52423 -26.97183,115.52423 -5.66298,17.77407 -8.18554,37.75865 -12.38925,61.34958 -4.45869,12.29597 -5.78837,25.63279 -11.5196,37.62934 -2.26297,10.88327 -10.80385,18.60729 -21.32758,21.47512 -10.89634,4.38822 -31.16168,-0.25715 -41.66264,-31.17554 -14.97371,-33.9847 -15.88272,-54.17659 -19.20205,-71.25447 12.61302,5.91904 60.14812,-8.7018 50.65814,-31.33636 25.91145,22.8651 -1.89205,62.60602 4.54617,80.00251 32.14321,-56.69436 60.76915,-138.73173 67.99344,-189.73726 25.03267,-17.40427 36.89444,19.89511 61.98852,6.41439 z"
           id="path4239"
           inkscape:connector-curvature="0"
           sodipodi:nodetypes="cccccccccccc" />
      </g>
    </g>
  </g>
</svg>
