<?xml version="1.0" encoding="UTF-8" standalone="no"?>
<!-- Created with Inkscape (http://www.inkscape.org/) -->

<svg
   xmlns:dc="http://purl.org/dc/elements/1.1/"
   xmlns:cc="http://creativecommons.org/ns#"
   xmlns:rdf="http://www.w3.org/1999/02/22-rdf-syntax-ns#"
   xmlns:svg="http://www.w3.org/2000/svg"
   xmlns="http://www.w3.org/2000/svg"
   xmlns:sodipodi="http://sodipodi.sourceforge.net/DTD/sodipodi-0.dtd"
   xmlns:inkscape="http://www.inkscape.org/namespaces/inkscape"
   width="503.22983"
   height="463.04227"
   viewBox="0 0 106.51831 98.011837"
   version="1.1"
   id="svg8"
   inkscape:version="0.92.2 5c3e80d, 2017-08-06"
   sodipodi:docname="logo.svg">
  <defs
     id="defs2" />
  <sodipodi:namedview
     id="base"
     pagecolor="#ffffff"
     bordercolor="#666666"
     borderopacity="1.0"
     inkscape:pageopacity="0.0"
     inkscape:pageshadow="2"
     inkscape:zoom="0.9498642"
     inkscape:cx="251.61491"
     inkscape:cy="231.52113"
     inkscape:document-units="mm"
     inkscape:current-layer="layer1"
     showgrid="false"
     scale-x="0.80001"
     fit-margin-top="10"
     fit-margin-left="10"
     fit-margin-right="10"
     fit-margin-bottom="10"
     units="px"
     inkscape:window-width="1280"
     inkscape:window-height="755"
     inkscape:window-x="0"
     inkscape:window-y="1"
     inkscape:window-maximized="1" />
  <metadata
     id="metadata5">
    <rdf:RDF>
      <cc:Work
         rdf:about="">
        <dc:format>image/svg+xml</dc:format>
        <dc:type
           rdf:resource="http://purl.org/dc/dcmitype/StillImage" />
        <dc:title></dc:title>
      </cc:Work>
    </rdf:RDF>
  </metadata>
  <g
     inkscape:label="Layer 1"
     inkscape:groupmode="layer"
     id="layer1"
     transform="translate(-3.0772997,-3.0450282)">
    <g
       id="g1617"
       transform="matrix(0.60220205,0,0,0.60220205,9.1479709,-27.561527)">
      <path
         id="path817"
         transform="scale(0.26458333)"
         d="M 322.85742,205.37695 A 294.2857,294.2857 0 0 0 28.572266,499.66211 294.2857,294.2857 0 0 0 322.85742,793.94727 294.2857,294.2857 0 0 0 617.14258,499.66211 294.2857,294.2857 0 0 0 322.85742,205.37695 Z m 12,15 A 267.28606,267.28606 0 0 1 602.14258,487.66211 267.28606,267.28606 0 0 1 334.85742,754.94922 267.28606,267.28606 0 0 1 67.570312,487.66211 267.28606,267.28606 0 0 1 334.85742,220.37695 Z"
         style="opacity:1;fill:#00aad4;fill-opacity:1;stroke:none;stroke-width:0.08799999;stroke-linecap:round;stroke-linejoin:round;stroke-miterlimit:4;stroke-dasharray:none;stroke-opacity:1"
         inkscape:connector-curvature="0" />
      <path
         sodipodi:nodetypes="ccccc"
         inkscape:connector-curvature="0"
         id="path828"
         d="m 54.352976,104.00538 c 7.255963,22.57807 13.910795,45.2897 3.401788,71.81551 L 100.0881,171.28517 C 86.447164,129.90234 73.870836,94.29874 67.204167,90.776195 Z"
         style="fill:#c87137;fill-rule:evenodd;stroke:none;stroke-width:0.26458332px;stroke-linecap:butt;stroke-linejoin:miter;stroke-opacity:1" />
      <path
         sodipodi:nodetypes="cccccccc"
         inkscape:connector-curvature="0"
         id="path826"
         d="m 23.8125,156.39286 c 7.69168,-9.91611 18.30174,-16.51797 37.23066,-14.74107 -29.15886,11.31887 -18.27326,31.32886 -18.27326,31.32886 0,0 37.34573,-47.43675 77.8045,-27.92708 -31.08211,-0.25881 -24.63372,24.01238 -17.83217,25.19191 8.657,2.30863 17.29217,-0.1168 50.11134,-14.98655 -5.46943,11.59065 -21.44377,40.52337 -64.02916,43.46726 -18.54028,-0.79396 -47.91283,-8.55896 -65.01191,-42.33333 z"
         style="fill:#00efff;fill-opacity:1;fill-rule:evenodd;stroke:none;stroke-width:0.26458332px;stroke-linecap:butt;stroke-linejoin:miter;stroke-opacity:1" />
      <path
         inkscape:transform-center-y="17.153096"
         inkscape:transform-center-x="36.725932"
         style="fill:#008000;fill-opacity:1;fill-rule:evenodd;stroke:none;stroke-width:0.23303612px;stroke-linecap:butt;stroke-linejoin:miter;stroke-opacity:1"
         d="M 0.97497497,130.02445 C 1.964924,111.29552 11.117243,106.9876 11.117243,106.9876 9.285611,106.9375 6.971145,124.24636 13.445477,131.84199 19.917322,107.46323 21.875805,103.4242 34.181504,97.654084 27.238832,105.90812 24.428144,118.67752 26.760095,124.73462 32.63665,111.5014 43.104833,97.877993 50.8,96.067862 c -1.73063,4.142678 -7.779511,6.981588 -7.716937,23.039148 4.787868,-13.13724 9.164035,-17.28109 20.596312,-22.651774 1.852908,-0.587275 3.549823,-1.264404 3.774461,-2.790064 1.965803,-2.874019 0.567409,-4.403786 -1.766875,-5.559544 C 53.214275,84.78602 40.258772,82.470229 26.287827,82.265554 9.896135,83.231308 -3.509159,88.963667 -6.5658663,111.21314 c 0.212915,9.38697 4.2707913,13.25515 7.54084127,18.81131 z"
         id="path1204"
         inkscape:connector-curvature="0"
         sodipodi:nodetypes="ccccccccccccc" />
      <path
         inkscape:transform-center-y="33.762891"
         inkscape:transform-center-x="25.444193"
         sodipodi:nodetypes="ccccccccccccc"
         inkscape:connector-curvature="0"
         id="path1202"
         d="m 36.720306,160.44725 c -10.068025,-15.82374 -5.117483,-24.64492 -5.117483,-24.64492 -1.520472,1.02261 6.644707,16.45899 16.326086,18.88428 -8.885017,-23.60635 -9.635485,-28.03198 -2.966466,-39.87461 -0.860384,10.75122 4.265101,22.77984 9.68053,26.3576 -2.898611,-14.18635 -2.285278,-31.35621 2.929088,-37.2978 0.996175,4.3777 -2.280471,10.20112 7.093471,23.23864 -3.729233,-13.476 -2.572127,-19.39067 3.617655,-30.401004 1.167671,-1.553942 2.156123,-3.090518 1.453214,-4.463117 -0.06817,-3.48134 -2.094861,-3.914952 -4.666428,-3.500655 -12.08249,4.538837 -23.975261,10.175309 -35.469054,18.120216 -12.785232,10.30335 -20.37146,22.75368 -9.942145,42.64379 5.623431,7.51904 11.173162,8.31233 17.061532,10.93758 z"
         style="fill:#37c87f;fill-opacity:1;fill-rule:evenodd;stroke:none;stroke-width:0.23303612px;stroke-linecap:butt;stroke-linejoin:miter;stroke-opacity:1" />
      <path
         sodipodi:nodetypes="ccccccccccccc"
         inkscape:connector-curvature="0"
         id="path1206"
         d="M 141.66131,112.37046 C 131.43948,93.906769 121.35937,92.051227 121.35937,92.051227 c 1.56118,-0.540976 12.22002,16.147783 10.4109,25.478253 -17.79416,-22.644647 -21.50975,-26.158912 -35.05189,-28.631705 10.13956,6.3937 18.95839,18.409975 19.96743,25.091965 C 104.97994,102.33111 89.10253,91.512637 81.533246,91.764441 85.10336,95.443396 91.76131,96.661518 99.73589,112.73583 89.02085,100.8815 83.159049,97.91026 70.573097,95.602838 c -1.898321,-0.09083 -3.706476,-0.313243 -4.663822,-1.778697 -3.139455,-2.347304 -2.693293,-4.251768 -1.24963,-6.033005 9.141869,-6.66165 19.203748,-12.448851 31.200605,-16.397034 14.67851,-3.426354 29.15403,-1.285959 42.92592,20.144498 4.50905,9.44402 2.92896,14.3995 2.87514,20.83186 z"
         style="fill:#008000;fill-opacity:1;fill-rule:evenodd;stroke:none;stroke-width:0.23303612px;stroke-linecap:butt;stroke-linejoin:miter;stroke-opacity:1"
         inkscape:transform-center-x="-38.894218"
         inkscape:transform-center-y="3.6953342" />
      <path
         style="fill:#37c87f;fill-opacity:1;fill-rule:evenodd;stroke:none;stroke-width:0.23303612px;stroke-linecap:butt;stroke-linejoin:miter;stroke-opacity:1"
         d="m 125.91634,152.37115 c 0.80732,-18.52132 -7.89062,-26.0161 -7.89062,-26.0161 1.82806,0.61519 2.47508,18.23969 -4.69659,23.2589 -4.10859,-25.98715 -5.67148,-30.61385 -17.36836,-40.66956 6.12074,10.52071 7.69626,23.92269 4.79521,28.95144 -4.58289,-14.96298 -13.69897,-31.96849 -21.185531,-36.51291 1.326122,4.64466 7.075481,9.5901 5.476181,25.13937 -3.508388,-14.47527 -7.467801,-20.07991 -18.333485,-29.43167 -1.788196,-1.241088 -3.412514,-2.512787 -3.490088,-4.073746 -1.68167,-3.499572 -0.143263,-4.476234 2.290955,-4.751022 12.733144,1.301367 25.850808,3.751163 39.777198,8.616295 16.224,6.877573 29.01904,17.295193 29.93198,39.979713 -1.11046,9.02598 -5.51997,11.30647 -9.30685,15.50929 z"
         id="path1208"
         inkscape:connector-curvature="0"
         sodipodi:nodetypes="ccccccccccccc"
         inkscape:transform-center-x="-34.716095"
         inkscape:transform-center-y="29.295425" />
    </g>
  </g>
</svg>
