<?xml version="1.0" encoding="UTF-8"?>
<svg width="503.23" height="463.04" version="1.1" viewBox="0 0 106.51831 98.011837" xmlns="http://www.w3.org/2000/svg">
 <g transform="translate(-3.0773 -3.045)">
  <g transform="matrix(.6022 0 0 .6022 9.148 -27.562)">
   <path transform="scale(.26458)" d="m322.86 205.38a294.29 294.29 0 0 0 -294.29 294.29 294.29 294.29 0 0 0 294.29 294.29 294.29 294.29 0 0 0 294.29 -294.29 294.29 294.29 0 0 0 -294.29 -294.29zm12 15a267.29 267.29 0 0 1 267.29 267.29 267.29 267.29 0 0 1 -267.29 267.29 267.29 267.29 0 0 1 -267.29 -267.29 267.29 267.29 0 0 1 267.29 -267.29z" fill="#00aad4"/>
   <path d="m54.353 104.01c7.256 22.578 13.911 45.29 3.4018 71.816l42.333-4.5357c-13.641-41.383-26.217-76.986-32.884-80.509z" fill="#c87137" fill-rule="evenodd"/>
   <g fill-rule="evenodd">
    <path d="m23.812 156.39c7.6917-9.9161 18.302-16.518 37.231-14.741-29.159 11.319-18.273 31.329-18.273 31.329s37.346-47.437 77.804-27.927c-31.082-0.25881-24.634 24.012-17.832 25.192 8.657 2.3086 17.292-0.1168 50.111-14.987-5.4694 11.591-21.444 40.523-64.029 43.467-18.54-0.79396-47.913-8.559-65.012-42.333z" fill="#00efff"/>
    <path d="m0.97497 130.02c0.98995-18.729 10.142-23.037 10.142-23.037-1.8316-0.0501-4.1461 17.259 2.3282 24.854 6.4718-24.379 8.4303-28.418 20.736-34.188-6.9427 8.254-9.7534 21.023-7.4214 27.081 5.8766-13.233 16.345-26.857 24.04-28.667-1.7306 4.1427-7.7795 6.9816-7.7169 23.039 4.7879-13.137 9.164-17.281 20.596-22.652 1.8529-0.58728 3.5498-1.2644 3.7745-2.7901 1.9658-2.874 0.56741-4.4038-1.7669-5.5595-12.473-3.3196-25.428-5.6354-39.399-5.8401-16.392 0.96575-29.797 6.6981-32.854 28.948 0.21292 9.387 4.2708 13.255 7.5408 18.811z" fill="#008000"/>
    <path d="m36.72 160.45c-10.068-15.824-5.1175-24.645-5.1175-24.645-1.5205 1.0226 6.6447 16.459 16.326 18.884-8.885-23.606-9.6355-28.032-2.9665-39.875-0.86038 10.751 4.2651 22.78 9.6805 26.358-2.8986-14.186-2.2853-31.356 2.9291-37.298 0.99618 4.3777-2.2805 10.201 7.0935 23.239-3.7292-13.476-2.5721-19.391 3.6177-30.401 1.1677-1.5539 2.1561-3.0905 1.4532-4.4631-0.06817-3.4813-2.0949-3.915-4.6664-3.5007-12.082 4.5388-23.975 10.175-35.469 18.12-12.785 10.303-20.371 22.754-9.9421 42.644 5.6234 7.519 11.173 8.3123 17.062 10.938z" fill="#37c87f"/>
    <path d="m141.66 112.37c-10.222-18.464-20.302-20.319-20.302-20.319 1.5612-0.54098 12.22 16.148 10.411 25.478-17.794-22.645-21.51-26.159-35.052-28.632 10.14 6.3937 18.958 18.41 19.967 25.092-11.706-11.659-27.583-22.477-35.153-22.225 3.5701 3.679 10.228 4.8971 18.203 20.971-10.715-11.854-16.577-14.826-29.163-17.133-1.8983-0.09083-3.7065-0.31324-4.6638-1.7787-3.1395-2.3473-2.6933-4.2518-1.2496-6.033 9.1419-6.6616 19.204-12.449 31.201-16.397 14.679-3.4264 29.154-1.286 42.926 20.144 4.509 9.444 2.929 14.4 2.8751 20.832z" fill="#008000"/>
    <path d="m125.92 152.37c0.80732-18.521-7.8906-26.016-7.8906-26.016 1.8281 0.61519 2.4751 18.24-4.6966 23.259-4.1086-25.987-5.6715-30.614-17.368-40.67 6.1207 10.521 7.6963 23.923 4.7952 28.951-4.5829-14.963-13.699-31.968-21.186-36.513 1.3261 4.6447 7.0755 9.5901 5.4762 25.139-3.5084-14.475-7.4678-20.08-18.333-29.432-1.7882-1.2411-3.4125-2.5128-3.4901-4.0737-1.6817-3.4996-0.14326-4.4762 2.291-4.751 12.733 1.3014 25.851 3.7512 39.777 8.6163 16.224 6.8776 29.019 17.295 29.932 39.98-1.1105 9.026-5.52 11.306-9.3068 15.509z" fill="#37c87f"/>
   </g>
  </g>
 </g>
</svg>
